<?xml version="1.0" encoding="utf-8"?>
<!-- Generator: Adobe Illustrator 22.0.1, SVG Export Plug-In . SVG Version: 6.00 Build 0)  -->
<svg version="1.1" id="Calque_1" xmlns="http://www.w3.org/2000/svg" xmlns:xlink="http://www.w3.org/1999/xlink" x="0px" y="0px"
	 viewBox="0 0 1366 768" style="enable-background:new 0 0 1366 768;" xml:space="preserve">
<style type="text/css">
	.st0{fill:#FFFFFF;}
	.st1{stroke:#000000;stroke-miterlimit:10;}
	.st2{font-family:'Lato-Light';}
	.st3{font-size:77.409px;}
	.st4{fill:#40BFEF;stroke:#FFFFFF;stroke-width:2;stroke-miterlimit:10;}
	.st5{fill:#92C01F;stroke:#FFFFFF;stroke-width:2;stroke-miterlimit:10;}
	.st6{fill:#F08503;stroke:#FFFFFF;stroke-width:2;stroke-miterlimit:10;}
	.st7{fill:#31A952;stroke:#FFFFFF;stroke-width:2;stroke-miterlimit:10;}
	.st8{fill:#FFD400;stroke:#FFFFFF;stroke-width:2;stroke-miterlimit:10;}
	.st9{fill:#F8B123;stroke:#FFFFFF;stroke-width:2;stroke-miterlimit:10;}
	.st10{fill:#FDEA18;stroke:#FFFFFF;stroke-width:2;stroke-miterlimit:10;}
</style>
<rect x="455.3" y="324" class="st0" width="442.7" height="120.9"/>
<text transform="matrix(0.9848 0 0 1 585.6692 402.4111)" class="st1 st2 st3">YoobakY</text>
<g>
	<ellipse class="st4" cx="513.2" cy="374.9" rx="41.5" ry="42.1"/>
	<ellipse class="st5" cx="540.7" cy="389.1" rx="29.2" ry="29.7"/>
	<ellipse class="st6" cx="525" cy="414.5" rx="21.2" ry="21.5"/>
	<path class="st7" d="M511.5,389.1c0,11.1,6,20.7,14.8,25.8c16.5-5.6,28.4-21.4,28.4-40c0-4.5-0.7-8.8-2-12.8
		c-3.7-1.7-7.7-2.6-12-2.6C524.6,359.5,511.5,372.7,511.5,389.1z"/>
	<path class="st8" d="M525,393c-4.7,0-9,1.5-12.4,4.1c3.4,12.5,14.7,21.7,28.1,21.7c1.8,0,3.5-0.2,5.2-0.5c0.2-1.2,0.4-2.5,0.4-3.8
		C546.2,402.6,536.7,393,525,393z"/>
	<path class="st9" d="M543.4,403.8c-3.7-6.5-10.5-10.8-18.4-10.8c-11.7,0-21.2,9.6-21.2,21.5c0,0.5,0,1,0.1,1.5
		c3,0.7,6.1,1.1,9.2,1.1C525.1,417.1,535.8,412,543.4,403.8z"/>
	<path class="st10" d="M542.9,404.4c0.2-0.2,0.4-0.4,0.5-0.6c-3.7-6.4-10.5-10.8-18.3-10.8c-4.7,0-9,1.6-12.5,4.1
		c2.1,7.6,7.1,14,13.7,17.8c1-0.3,2-0.7,2.9-1.1c0.1,0,0.1-0.1,0.2-0.1c0.9-0.4,1.9-0.8,2.8-1.3c0.1,0,0.1-0.1,0.2-0.1
		c0.8-0.4,1.6-0.9,2.4-1.4c0.1-0.1,0.2-0.1,0.3-0.2c0.8-0.5,1.6-1.1,2.4-1.6c0.2-0.1,0.3-0.2,0.5-0.4c0.7-0.5,1.3-1,1.9-1.5
		c0.1-0.1,0.3-0.2,0.4-0.3c0.7-0.6,1.3-1.2,2-1.9C542.5,404.8,542.7,404.6,542.9,404.4z"/>
</g>
</svg>
